<?xml version="1.0" encoding="UTF-8" standalone="no"?>
<!-- Created with Inkscape (http://www.inkscape.org/) -->

<svg
   version="1.1"
   id="svg2"
   width="1333.3333"
   height="1066.6667"
   viewBox="0 0 1333.3333 1066.6667"
   sodipodi:docname="music_icon.eps"
   xmlns:inkscape="http://www.inkscape.org/namespaces/inkscape"
   xmlns:sodipodi="http://sodipodi.sourceforge.net/DTD/sodipodi-0.dtd"
   xmlns="http://www.w3.org/2000/svg"
   xmlns:svg="http://www.w3.org/2000/svg">
  <defs
     id="defs6" />
  <sodipodi:namedview
     id="namedview4"
     pagecolor="#ffffff"
     bordercolor="#000000"
     borderopacity="0.25"
     inkscape:showpageshadow="2"
     inkscape:pageopacity="0.0"
     inkscape:pagecheckerboard="0"
     inkscape:deskcolor="#d1d1d1" />
  <g
     id="g8"
     inkscape:groupmode="layer"
     inkscape:label="ink_ext_XXXXXX"
     transform="matrix(1.3333333,0,0,-1.3333333,0,1066.6667)">
    <g
       id="g10"
       transform="scale(0.1)">
      <path
         d="m 7241.68,3885.08 c -1.06,89.78 -47.72,172.78 -123.59,220.77 l -0.83,0.53 c -84.83,53.66 -192.68,54.9 -278.72,3.22 l -76.63,-46.03 c -118.78,861.94 -860.6,1529.32 -1749.63,1535.32 -4.11,0.03 -8.18,-0.07 -12.28,-0.07 -4.1,0 -8.17,0.1 -12.28,0.07 -889.03,-6 -1630.85,-673.38 -1749.63,-1535.32 l -76.63,46.03 c -86.04,51.68 -193.89,50.44 -278.72,-3.22 l -0.83,-0.53 c -75.87,-47.99 -122.53,-130.99 -123.59,-220.77 -2.54,-213.88 14.9,-616.2 162.05,-888.39 41.12,-76.05 117.38,-126.68 203.29,-136.36 h 0.01 c 103.87,-11.7 204.95,38.61 258.23,128.55 l 24.49,41.32 c 20.93,-42.13 43.3,-83.44 67.39,-123.6 13.4,-22.32 27.26,-44.33 41.59,-66 45.9,-69.43 148.18,-68.75 194.04,0.7 l 1.38,2.08 c 25.16,38.09 25.67,87.68 0.47,125.73 -31.95,48.24 -61.28,98.37 -87.73,150.22 -107.32,210.31 -167.87,448.46 -167.9,700.76 -0.11,845.25 688.27,1538.72 1533.49,1544.54 3.64,0.03 7.25,-0.06 10.88,-0.06 3.63,0 7.24,0.09 10.88,0.06 845.22,-5.82 1533.6,-699.29 1533.5,-1544.54 -0.04,-252.3 -60.59,-490.45 -167.91,-700.76 -26.45,-51.85 -55.78,-101.98 -87.73,-150.22 -25.2,-38.05 -24.69,-87.64 0.47,-125.73 l 1.38,-2.08 c 45.86,-69.45 148.14,-70.13 194.04,-0.7 14.33,21.67 28.19,43.68 41.59,66 24.09,40.16 46.46,81.47 67.39,123.6 l 24.49,-41.32 c 53.28,-89.94 154.36,-140.25 258.23,-128.55 h 0.01 c 85.91,9.68 162.17,60.31 203.29,136.36 147.15,272.19 164.59,674.51 162.05,888.39"
         style="fill:#e9202a;fill-opacity:1;fill-rule:nonzero;stroke:none"
         id="path12" />
      <path
         d="m 5890,3470.94 -8.23,0.14 -1.9,-8.4 -76.43,-338.67 -49.8,-223.51 c -30.39,189.43 -61.64,378.72 -92.27,568.11 l -56.24,341.92 -56.88,341.79 -28.36,170.45 -47.35,-166.91 -103.29,-364.1 -59.24,-211.6 -35.82,128.06 -43.27,154.67 -45.11,-154.67 -96.83,-331.97 -35.82,-124.51 -91.39,561.96 -128.78,774.79 -57.64,346.79 -38.68,-349.23 -51.52,-465.11 -49.94,-465.28 -49.95,-465.29 -15.78,-151.5 -4.48,32.1 -48.93,345.31 -49.36,345.25 -50.04,345.17 -14.11,97.34 -28.37,-93.48 -97.37,-320.78 -94.37,-314.25 c -147.48,-2.63 -294.97,-6.65 -442.45,-9.93 150,-3.33 300,-7.47 450,-10.09 l 7.17,-0.12 2.43,7.13 108.58,317.18 76.26,224.97 28.85,-250.09 40.64,-346.38 41.07,-346.34 41.86,-346.22 38.02,-314.53 38.35,315.17 56.51,464.55 55.05,464.71 55.06,464.71 13.44,116.82 69.94,-429.58 128.92,-774.76 35.5,-213.32 58.98,207.87 94.39,332.67 49.9,178.38 36.44,-124.91 44.44,-152.38 40.97,152.84 97.98,365.55 52.58,198.94 31.54,-170.2 63.76,-340.59 c 43.12,-226.95 85.25,-454.07 129.19,-680.88 l 22.45,-115.89 21.79,115.25 64.5,341.13 62.06,333.25 c 150.46,2.71 300.92,6.76 451.38,10.16 -153.33,3.46 -306.67,7.63 -460,10.34"
         style="fill:#e9202a;fill-opacity:1;fill-rule:nonzero;stroke:none"
         id="path14" />
    </g>
  </g>
</svg>
