<svg width="288" height="288" viewBox="0 0 288 288" fill="none" xmlns="http://www.w3.org/2000/svg">
<rect x="79" y="85" width="130" height="118" rx="30" fill="white"/>
<path d="M173.142 145.695C173.128 144.371 172.522 143.147 171.535 142.439L171.524 142.431C170.422 141.639 169.02 141.621 167.901 142.383L166.905 143.062C165.361 130.349 155.717 120.505 144.16 120.416C144.106 120.416 144.053 120.417 144 120.417C143.947 120.417 143.894 120.416 143.84 120.416C132.283 120.505 122.639 130.349 121.095 143.062L120.099 142.383C118.98 141.621 117.578 141.639 116.476 142.431L116.465 142.439C115.479 143.147 114.872 144.371 114.858 145.695C114.825 148.85 115.052 154.784 116.965 158.799C117.499 159.921 118.491 160.667 119.608 160.81H119.608C120.958 160.983 122.272 160.241 122.965 158.914L123.283 158.305C123.555 158.926 123.846 159.535 124.159 160.128C124.333 160.457 124.514 160.782 124.7 161.101C125.297 162.125 126.626 162.115 127.222 161.091L127.24 161.06C127.567 160.498 127.574 159.767 127.246 159.206C126.831 158.494 126.45 157.755 126.106 156.99C124.711 153.888 123.924 150.375 123.923 146.654C123.922 134.186 132.871 123.958 143.859 123.872C143.906 123.871 143.953 123.873 144 123.873C144.047 123.873 144.094 123.871 144.141 123.872C155.129 123.958 164.078 134.186 164.077 146.654C164.076 150.375 163.289 153.888 161.894 156.99C161.55 157.755 161.169 158.494 160.754 159.206C160.426 159.767 160.433 160.498 160.76 161.06L160.778 161.091C161.374 162.115 162.704 162.125 163.3 161.101C163.487 160.782 163.667 160.457 163.841 160.128C164.154 159.535 164.445 158.926 164.717 158.305L165.035 158.914C165.728 160.241 167.042 160.983 168.392 160.81H168.392C169.509 160.667 170.501 159.921 171.035 158.799C172.948 154.784 173.175 148.85 173.142 145.695Z" fill="#E9202A"/>
<path d="M155.57 151.804L155.463 151.802L155.438 151.925L154.445 156.921L153.797 160.218C153.402 157.424 152.996 154.631 152.598 151.838L151.867 146.795L151.127 141.753L150.759 139.239L150.143 141.701L148.8 147.072L148.03 150.193L147.564 148.304L147.002 146.022L146.416 148.304L145.157 153.2L144.691 155.037L143.503 146.748L141.829 135.32L141.08 130.205L140.577 135.356L139.907 142.216L139.258 149.079L138.608 155.942L138.403 158.177L138.345 157.703L137.709 152.61L137.067 147.517L136.417 142.426L136.233 140.99L135.864 142.369L134.599 147.101L133.372 151.736C131.455 151.775 129.537 151.834 127.62 151.882C129.57 151.932 131.52 151.993 133.47 152.031L133.563 152.033L133.595 151.928L135.006 147.249L135.998 143.931L136.373 147.62L136.901 152.729L137.435 157.838L137.979 162.944L138.473 167.584L138.972 162.935L139.707 156.083L140.422 149.228L141.138 142.374L141.313 140.651L142.222 146.987L143.898 158.415L144.359 161.561L145.126 158.495L146.353 153.588L147.002 150.957L147.476 152.8L148.053 155.047L148.586 152.793L149.86 147.401L150.543 144.467L150.953 146.977L151.782 152.001C152.343 155.348 152.89 158.698 153.462 162.044L153.754 163.753L154.037 162.053L154.875 157.021L155.682 152.106C157.638 152.066 159.594 152.006 161.55 151.956C159.557 151.905 157.563 151.844 155.57 151.804Z" fill="#E9202A"/>
</svg>
